<?xml version="1.0" encoding="UTF-8"?>
<svg id="Camada_1" data-name="Camada 1" xmlns="http://www.w3.org/2000/svg" viewBox="0 0 700 700">
  <defs>
    <style>
      .cls-1 {
        fill: #2f2f30;
      }
    </style>
  </defs>
  <path class="cls-1" d="M168.27,420.15c-6.44,0-11.85-5.02-12.25-11.54-2.1-34.86,9.32-68.64,32.16-95.1,22.24-25.78,53.61-41.81,86.07-44,34.48-2.32,69.22,10.79,95.31,36,27.07,26.15,41.9,62.63,40.68,100.09-.22,6.78-5.9,12.05-12.67,11.87-6.78-.22-12.09-5.89-11.87-12.67.99-30.54-11.11-60.29-33.2-81.62-21.11-20.39-49.03-31.01-76.6-29.16-55.16,3.72-98.83,55.53-95.37,113.13.41,6.77-4.75,12.59-11.52,13-.25.02-.5.02-.75.02Z"/>
  <path class="cls-1" d="M398.05,612.28c-6.78,0-12.28-5.5-12.28-12.28v-28.42c0-34.38-27.97-62.34-62.34-62.34h-80.75c-34.37,0-62.33,27.97-62.33,62.34v28.42c0,6.78-5.5,12.28-12.28,12.28s-12.28-5.5-12.28-12.28v-28.42c0-47.92,38.98-86.9,86.89-86.9h80.75c47.92,0,86.9,38.98,86.9,86.9v28.42c0,6.78-5.5,12.28-12.28,12.28Z"/>
  <path class="cls-1" d="M482.59,612.28H72.58c-6.78,0-12.28-5.5-12.28-12.28s5.5-12.28,12.28-12.28h410.01c6.78,0,12.28,5.5,12.28,12.28s-5.5,12.28-12.28,12.28Z"/>
  <path class="cls-1" d="M283.05,447.16c-29.67,0-53.81-24.14-53.81-53.81s24.14-53.81,53.81-53.81,53.81,24.14,53.81,53.81-24.14,53.81-53.81,53.81ZM283.05,364.1c-16.13,0-29.25,13.12-29.25,29.25s13.12,29.25,29.25,29.25,29.25-13.12,29.25-29.25-13.12-29.25-29.25-29.25Z"/>
  <g>
    <path class="cls-1" d="M602.3,241.53h-115.12c-6.78,0-12.28-5.5-12.28-12.28s5.5-12.28,12.28-12.28h115.12c7.08,0,12.85-5.76,12.85-12.85v-79.01c0-7.08-5.76-12.83-12.85-12.83h-207.22c-7.08,0-12.83,5.76-12.83,12.83v79.01c0,7.08,5.76,12.85,12.83,12.85h18.84c6.78,0,12.28,5.5,12.28,12.28s-5.5,12.28-12.28,12.28h-18.84c-20.62,0-37.39-16.78-37.39-37.4v-79.01c0-20.62,16.77-37.39,37.39-37.39h207.22c20.62,0,37.4,16.77,37.4,37.39v79.01c0,20.62-16.78,37.4-37.4,37.4Z"/>
    <path class="cls-1" d="M413.92,314.78c-1.54,0-3.09-.29-4.57-.88-4.65-1.87-7.7-6.38-7.71-11.39v-73.25c0-6.78,5.49-12.28,12.28-12.28,6.78,0,12.28,5.5,12.28,12.28v42.67s48.97-51.16,48.97-51.16c4.69-4.9,12.46-5.07,17.36-.38,4.9,4.69,5.07,12.46.38,17.36l-70.12,73.26c-2.36,2.47-5.59,3.79-8.87,3.79Z"/>
  </g>
</svg>