<?xml version="1.0" encoding="UTF-8"?>
<svg id="Camada_1" data-name="Camada 1" xmlns="http://www.w3.org/2000/svg" viewBox="0 0 700 700">
  <defs>
    <style>
      .cls-1 {
        fill: #2f2f30;
      }
    </style>
  </defs>
  <path class="cls-1" d="M441.43,394.59c-2.53-8.96-4.57-16.18-6.4-22.64,10-7.32,20.66-13.66,29.58-21.89,36.97-34.12,39.34-86.73,5.99-127.36-26.95-32.83-62.49-50.77-103.94-56.83-53.46-7.81-102.49,4.1-144.77,38.11-49.36,39.71-73.25,91.89-70.74,155.44,3.33,84.17,66.48,159.68,155.45,174.44,50.82,8.43,97.62-2.91,139.75-32.83,4.52-3.21,6.03-6.92,4.64-12.65-4.16-17.2.23-32.12,12.82-44.79,5.66-5.69,11.57-10.79,15.01-18.98,3.37-8.02,11.54-13.22,19.94-2.95.82,1,1.91,1.79,4.35,4.06,6.81-7.41,13.3-14.76,20.11-21.81,5.58-5.76,11.42-6.22,15.85-1.78,4.31,4.32,3.64,10.26-1.89,15.83-6.91,6.95-13.88,13.84-20.56,20.5,5.59,5.59,10.9,10.92,16.92,16.94,6.57-6.5,13.73-13.42,20.68-20.55,3.46-3.54,7.35-5.15,12.08-3.69,7.1,2.18,8.57,10.84,2.75,16.92-7.09,7.4-14.43,14.57-21.99,22.16.92,1.04,1.74,2.03,2.63,2.95,8.48,8.74,5.55,18.61-6.35,21.86-2.21.6-4.41,1.93-6.14,3.46-3.68,3.26-6.95,6.96-10.55,10.31-14.07,13.11-30.37,16.52-48.36,10.04-7.74-2.79-14.1-1.74-20.72,2.88-126.04,87.79-299.57,16.26-326.87-134.66-20.9-115.52,57.2-226.29,173.36-244.13,59.39-9.12,114.41,3.02,161.82,41.67,29.05,23.69,47.29,53.9,50.65,91.91,3.56,40.34-12.37,72.36-43.35,97.18-9.78,7.84-21,13.87-31.77,20.86Z"/>
  <path class="cls-1" d="M257.55,411.88c18.71,14.1,39.43,21.1,61.61,24.49,5.01.77,7.11-.39,7.08-5.61-.11-19.24-.2-38.48.05-57.71.06-4.98-2.46-6.39-6.49-7.64-11.91-3.69-24.11-6.82-35.49-11.78-24.88-10.85-37.66-30-36.01-57.68,1.53-25.87,14.51-44.37,37.92-54.71,10.47-4.62,22.05-6.86,33.28-9.57,4.72-1.14,7.11-2.85,6.77-7.95-.3-4.68-.5-9.45.16-14.06.25-1.78,2.84-4.39,4.6-4.59,5.3-.62,10.76-.63,16.05-.02,1.77.2,4.4,2.82,4.64,4.6.65,4.83.4,9.82.19,14.73-.19,4.32,1.68,5.75,5.89,6.09,19.81,1.58,38.54,7.05,56.38,15.86,4.76,2.35,6.09,4.63,3.67,9.75-3.88,8.24-6.95,16.85-10.33,25.23-10.52-4.1-20.51-8.37-30.77-11.84-6.3-2.13-13.03-2.96-19.55-4.47-4-.92-5.27.94-5.27,4.6.04,20.36-.13,40.71.29,61.06.04,1.98,3.34,4.78,5.7,5.68,13.54,5.13,27.79,8.69,40.81,14.85,26.05,12.34,35.47,36.95,30.02,64.41-5.16,25.96-22.92,40.53-46.67,48.83-7.31,2.55-15.02,4.23-22.68,5.49-5.66.93-8.27,3.05-7.55,9.05.47,3.97-.05,8.05.12,12.07.17,3.97-1.4,5.92-5.47,5.57-.22-.02-.45,0-.67,0-19.23.72-19.39.72-19.49-18.22-.03-5.46-1.87-7-7.32-7.57-24.64-2.57-48.33-8.41-69.6-22-5.02-3.21-5.92-6.4-3.39-11.56,3.91-8.01,7.41-16.22,11.54-25.37ZM325.16,326.51c.24-.55.73-1.15.74-1.75.1-18.1.16-36.2.2-54.3,0-3.99-2.21-5.19-5.72-4.08-4.45,1.4-9.03,2.62-13.19,4.67-14.13,6.96-20.19,19.91-16.73,33.53,2.77,10.93,23.57,23.22,34.7,21.94ZM353.23,374.5c-.62,1.49-1.08,2.09-1.09,2.7-.09,18.06-.11,36.12-.19,54.18-.02,3.69,2,4.95,5.14,4,5.95-1.79,12.17-3.24,17.6-6.12,15.39-8.14,19.23-28.47,7.73-40.38-7.81-8.09-18.02-11.83-29.19-14.39Z"/>
</svg>