<?xml version="1.0" encoding="UTF-8"?>
<svg id="Camada_1" data-name="Camada 1" xmlns="http://www.w3.org/2000/svg" viewBox="0 0 700 700">
  <defs>
    <style>
      .cls-1 {
        fill: #2f2f30;
      }
    </style>
  </defs>
  <path class="cls-1" d="M368.5,522.7c-39.07,0-76.03-.07-99.01-.27-31.32-.28-54.06-8.13-67.58-23.32-12.2-13.71-12.44-28.58-12.2-32.97V148.09l-77.63-34.38c-7.57-3.35-11-12.21-7.64-19.79,3.35-7.58,12.21-10.99,19.79-7.64l86.56,38.33c5.43,2.4,8.93,7.78,8.93,13.72v328.29c0,.75.04.79-.05,1.41,0,1.12.26,6.49,5.11,11.61,5.38,5.7,17.56,12.54,45,12.78,68.36.61,261.25,0,263.2,0h.05c8.26,0,14.97,6.68,15,14.95.03,8.28-6.67,15.02-14.95,15.05-1.29,0-87.06.27-164.55.27ZM219.62,468.23h0Z"/>
  <path class="cls-1" d="M538.57,433.4H244.28c-.38,0-.77-.01-1.15-.04-3.25-.25-32.15-3.13-46.62-27.04-7.31-12.08-7.39-24.06-7.42-28-.15-22.99-.22-91.11.62-184.38.04-4.37,1.98-8.5,5.31-11.32,3.33-2.82,7.73-4.05,12.04-3.36l377.14,59.87c7.29,1.16,12.65,7.44,12.65,14.81v119.32c0,.55-.03,1.09-.09,1.63-2.22,20.23-17.23,58.5-58.19,58.5ZM245.06,403.4h293.51c6.29,0,15.46-1.45,22.45-14.01,4.03-7.25,5.47-14.89,5.83-17.16v-105.48l-347.29-55.13c-.71,87.37-.59,149.2-.47,166.5.02,2.29.05,7.66,3.09,12.67,6.05,10,20.38,12.29,22.88,12.62Z"/>
  <path class="cls-1" d="M293.74,615c-34.79,0-63.1-27.6-63.1-61.52s28.31-61.52,63.1-61.52,63.1,27.6,63.1,61.52-28.31,61.52-63.1,61.52ZM293.74,521.97c-18.25,0-33.1,14.14-33.1,31.52s14.85,31.52,33.1,31.52,33.1-14.14,33.1-31.52-14.85-31.52-33.1-31.52Z"/>
  <path class="cls-1" d="M525.43,615c-34.79,0-63.1-27.6-63.1-61.52s28.31-61.52,63.1-61.52,63.1,27.6,63.1,61.52-28.31,61.52-63.1,61.52ZM525.43,521.97c-18.25,0-33.1,14.14-33.1,31.52s14.85,31.52,33.1,31.52,33.1-14.14,33.1-31.52-14.85-31.52-33.1-31.52Z"/>
</svg>