<?xml version="1.0" encoding="UTF-8"?>
<svg id="Camada_1" data-name="Camada 1" xmlns="http://www.w3.org/2000/svg" viewBox="0 0 700 700">
  <defs>
    <style>
      .cls-1 {
        fill: #2f2f30;
      }
    </style>
  </defs>
  <path class="cls-1" d="M536.86,252.23c4.84,0,9.43-.02,14.02,0,9.84.06,18.27,6.44,20.89,15.94.56,2.03.83,4.2.83,6.3.06,19.57.09,39.15.01,58.72-.06,15.85-10.46,28.95-25.67,31.86-13.49,2.58-24.32-2.15-32.47-13.15-.33-.45-.64-.91-1.08-1.53-6.55,9.72-15.41,15.35-27.22,15.33-11.83-.01-20.73-5.6-27.32-15.34-6.52,9.7-15.34,15.32-27.12,15.34-11.77.01-20.63-5.53-27.23-15.34-6.56,9.67-15.43,15.3-27.23,15.34-11.83.04-20.72-5.54-27.32-15.35-6.6,9.75-15.5,15.34-27.31,15.35-11.77,0-20.62-5.56-27.2-15.33-6.56,9.74-15.44,15.35-27.25,15.33-11.76-.03-20.63-5.57-27.25-15.35-6.52,9.7-15.38,15.35-27.19,15.35-11.78,0-20.62-5.59-27.18-15.34-.51.7-.96,1.31-1.41,1.92-7.83,10.84-21.04,15.75-33.67,12.53-12.74-3.25-22.17-13.92-23.89-27.07-.21-1.61-.27-3.24-.27-4.87-.02-19.41-.03-38.81,0-58.22,0-10.93,6.64-19.58,16.82-21.88,1.79-.4,3.66-.5,5.5-.53,4.31-.07,8.63-.02,13.13-.02.03-.68.08-1.28.08-1.87,0-5.61,0-11.22,0-16.83.02-9.61,6.71-16.28,16.31-16.28,113.74,0,227.48,0,341.22,0,10,0,16.43,6.42,16.44,16.39,0,5.5,0,10.99,0,16.49v2.1ZM172.34,252.12h355.01c0-6.94.13-13.77-.07-20.59-.07-2.27-1.75-3.89-3.98-4.52-1.16-.33-2.43-.34-3.66-.34-112.89-.01-225.78-.01-338.68-.01-.9,0-1.8-.02-2.69.01-3.13.12-5.83,2.5-5.89,5.6-.13,6.55-.04,13.11-.04,19.85ZM508.69,261.71h-45.15v2.53c0,22.48,0,44.96,0,67.44,0,1.34.05,2.69.15,4.03.93,12.85,13.45,22.6,26.12,20.35,11.28-2,18.86-11.26,18.87-23.18.03-23.1,0-46.19,0-69.29,0-.6,0-1.21,0-1.88ZM300.24,261.73c-.03.61-.07,1.05-.07,1.49,0,23.43-.01,46.87.02,70.3,0,1.67.18,3.37.54,5,2.55,11.51,12.89,18.9,24.64,17.69,11.06-1.15,19.87-11,19.89-22.47.05-23.55.02-47.09.01-70.64,0-.43-.06-.86-.11-1.37h-44.93ZM354.78,261.7c-.03.61-.08,1.04-.08,1.48,0,23.6-.05,47.2.02,70.81.03,11.56,9.27,21.51,20.43,22.27,13.7.94,24.64-9.22,24.66-22.98.03-23.27,0-46.53,0-69.8,0-.59-.05-1.18-.08-1.78h-44.95ZM245.66,261.7c0,.72,0,1.27,0,1.82,0,23.32,0,46.64,0,69.96,0,12.64,10.02,22.81,22.49,22.88,12.53.06,22.59-10.11,22.6-22.9.02-23.32,0-46.64,0-69.96,0-.59-.05-1.18-.08-1.8h-45.02ZM191.29,261.7c0,.83,0,1.49,0,2.15,0,22.93,0,45.86,0,68.78,0,.84.03,1.68.09,2.52.87,12.19,10.98,21.55,22.89,21.19,12.28-.38,21.93-10.32,21.94-22.7.03-23.38,0-46.75,0-70.13v-1.82h-44.93ZM409.32,261.71c-.04.41-.09.68-.09.94,0,23.94-.14,47.87.05,71.81.11,13.79,13.01,24.01,26.56,21.48,10.72-1.99,18.28-11.33,18.3-22.79.04-23.21.01-46.42,0-69.62,0-.59-.07-1.18-.11-1.83h-44.72ZM518.2,261.64c-.05.52-.1.79-.1,1.06,0,23.77-.16,47.55.06,71.32.13,14.4,13.06,24.65,26.96,21.87,10.54-2.11,18.01-11.27,18.08-22.67.12-19.62.08-39.25.02-58.87-.02-7.56-5.37-12.7-12.94-12.7-10.09,0-20.18,0-30.28,0-.56,0-1.11,0-1.8,0ZM181.89,261.73c-.53-.04-.8-.09-1.08-.09-10.66,0-21.31-.05-31.97.02-6.77.04-12,5.3-12.02,12.15-.05,20.08-.12,40.15.02,60.23.1,14.87,14.27,25.44,28.46,21.48,9.93-2.77,16.56-11.67,16.57-22.34.02-23.22,0-46.43,0-69.65,0-.55,0-1.1,0-1.8Z"/>
  <path class="cls-1" d="M536.86,606.94c3.4,0,6.48,0,9.56,0,7.05,0,11.8,4.46,12.05,11.48.13,3.64.13,7.29,0,10.94-.27,7.17-4.95,11.58-12.12,11.58-130.91,0-261.83,0-392.74,0-7.53,0-12.27-4.75-12.28-12.3,0-3.42-.02-6.84,0-10.26.06-6.42,5.02-11.38,11.45-11.42,3.3-.02,6.59,0,10.1,0v-2.47c0-76.39,0-152.79,0-229.18,0-.95,0-1.93.22-2.83.56-2.27,2.58-3.63,4.92-3.46,2.26.17,4.05,1.94,4.26,4.25.05.56.03,1.12.03,1.68,0,76.51,0,153.01,0,229.52v2.33h21.57c.03-.71.1-1.52.1-2.33,0-66.8,0-133.61,0-200.41,0-.78,0-1.58.13-2.35.36-2.09,2.05-3.59,4.17-3.75.61-.05,1.23-.02,1.85-.02,36.96,0,73.93.04,110.89-.06,4.66-.01,6.47,1.98,6.46,6.39-.07,66.75-.05,133.49-.05,200.24v2.3h209.9c.03-.76.1-1.57.1-2.38,0-77.07,0-154.14.01-231.2,0-.89,0-1.81.19-2.67.5-2.36,2.5-3.77,4.96-3.59,2.28.16,4.05,1.93,4.22,4.26.06.78.03,1.57.03,2.35,0,76.95,0,153.91,0,230.86,0,.77,0,1.54,0,2.51ZM307.92,606.87v-199.44h-104.4v199.44h104.4ZM349.98,616.35c-65.06,0-130.12,0-195.18,0-.56,0-1.12-.02-1.68,0-1.64.06-2.35.72-2.37,2.38-.04,3.48-.04,6.95,0,10.43.02,1.64.75,2.31,2.39,2.36.62.02,1.23,0,1.85,0,129.34,0,258.67,0,388.01,0,1.12,0,2.24,0,3.37,0,2.12-.02,2.66-.55,2.67-2.72.02-3.03,0-6.06,0-9.09,0-3.06-.31-3.36-3.37-3.36-65.23,0-130.46,0-195.69,0Z"/>
  <path class="cls-1" d="M424.38,397.93c26.08,0,52.15,0,78.23,0,4.15,0,5.84,1.66,5.84,5.78,0,44.97,0,89.95,0,134.92,0,3.7-1.78,5.49-5.45,5.49-52.54,0-105.09,0-157.63,0-3.71,0-5.47-1.75-5.47-5.44,0-45.09,0-90.17,0-135.26,0-3.78,1.75-5.5,5.59-5.5,26.3,0,52.6,0,78.9,0ZM498.91,534.61v-127.17h-149.52v127.17h149.52Z"/>
  <path class="cls-1" d="M350.07,59.06c52.33.34,98.47,36.69,110.98,87.79,5.14,21.02,4.55,41.89-1.77,62.58-.24.8-.53,1.61-.97,2.31-1.24,2-3.79,2.7-5.91,1.71-2.11-.97-3.07-3.25-2.49-5.64,1.29-5.27,2.99-10.49,3.74-15.84,5.27-37.4-5.6-69.42-33.03-95.42-16.18-15.34-35.69-24.44-57.87-26.9-35.11-3.9-65.04,7.21-89.33,32.8-15.72,16.56-24.77,36.51-27.68,59.16-1.97,15.33-.56,30.43,3.84,45.25.34,1.14.49,2.45.29,3.61-.34,1.97-2.25,3.33-4.28,3.41-2.13.09-4.04-1.05-4.61-3.19-1.32-4.92-2.76-9.84-3.61-14.85-4.86-28.37-.53-55.28,14.37-79.99,18.54-30.76,45.72-49.29,81.28-55.12,5.62-.92,11.36-1.13,17.05-1.67Z"/>
  <path class="cls-1" d="M374.24,147.7c-.31-8.97-6.54-16.48-15.46-18.92-4.14-1.13-4.94-2.19-4.94-6.52,0-1.5,0-3,0-4.62h-7.52c0,1.6,0,3.15,0,4.71,0,4.22-.82,5.26-4.85,6.42-7.69,2.22-13.11,6.87-14.92,14.87-1.9,8.39-.11,16.02,5.61,22.59,3.61,4.16,8.17,7.13,12.68,10.18,4.5,3.04,9.09,5.99,13.31,9.39,4.13,3.32,6.6,7.73,6.38,13.3-.27,6.84-4.98,12.03-11.79,12.72-2.04.21-4.17.21-6.19-.13-5.49-.93-9.05-4.24-10.6-9.56-.38-1.3-.95-1.63-2.21-1.59-3.13.09-6.27.03-9.67.03.16,1.08.24,2,.45,2.89.32,1.42.71,2.82,1.09,4.23.73,2.78-.55,5.25-3.12,6.02-2.49.74-5.07-.53-5.81-3.19-.84-3.01-1.43-6.1-1.97-9.18-.29-1.65-.31-3.35-.32-5.03-.02-3.15,1.85-5.1,4.97-5.12,6.73-.05,13.46-.05,20.19,0,2.93.02,4.66,1.74,4.93,4.67.03.33.02.67.04,1.01.25,4.7,2.19,6.3,6.86,5.66,3.14-.43,4.64-2.73,3.39-5.69-.63-1.5-1.66-3.02-2.91-4.02-3.11-2.47-6.38-4.74-9.71-6.92-5.45-3.56-10.94-7.05-15.5-11.78-9.19-9.54-12.26-20.82-8.99-33.61,2.43-9.51,8.64-15.91,17.69-19.55,1.17-.47,1.65-1.02,1.56-2.31-.12-1.9-.07-3.81-.02-5.72.09-2.87,1.91-4.77,4.77-4.8,5.61-.07,11.22-.07,16.82,0,2.89.03,4.66,1.89,4.74,4.8.05,2.02.05,4.04,0,6.06-.02.89.2,1.39,1.12,1.75,12.73,5.01,18.46,14.94,19.6,28.06.11,1.28.15,2.58.09,3.87-.12,2.53-1.88,4.41-4.39,4.43-7.07.07-14.13.07-21.2,0-2.41-.02-4.19-1.86-4.42-4.26-.04-.39-.02-.78-.04-1.18-.17-3.61-1.62-4.85-5.16-4.39-1.97.26-3.1,1.57-2.39,3.38.63,1.6,1.66,3.26,2.97,4.32,2.6,2.1,5.46,3.92,8.32,5.67,6.28,3.82,12.65,7.51,17.75,12.93,9.66,10.25,12.12,22.24,8.5,35.67-.12.43-.27.86-.43,1.27-1.09,2.78-3.62,4.05-6.17,3.12-2.56-.93-3.7-3.53-2.68-6.35,1.82-5.07,1.85-10.22.65-15.4-1.32-5.68-4.37-10.39-8.91-13.9-4.33-3.35-9.07-6.16-13.6-9.26-3.64-2.5-7.36-4.92-10.8-7.68-2.71-2.18-4.39-5.19-4.97-8.73-1.21-7.39,3.02-13.37,10.44-14.34,7.24-.95,13.09,2.08,15.14,8.76.12.39.59.95.9.96,3.52.07,7.03.04,10.66.04Z"/>
  <path class="cls-1" d="M436.79,174.6c-.1,12.77-2.49,24.61-7.42,35.92-1.13,2.58-3.22,3.79-5.57,3.27-2.99-.65-4.49-3.7-3.19-6.71,2.33-5.43,4.12-11.01,5.26-16.81,8.54-43.75-20.5-85.24-63.35-92.44-40.11-6.74-79,19.66-87.91,59.63-3.75,16.83-2.21,33.2,4.57,49.06.83,1.95,1.06,3.78-.28,5.55-2.19,2.89-6.68,2.36-8.05-1.17-1.9-4.9-3.8-9.85-5.06-14.94-9.88-39.81,9.35-81.52,45.88-99.54,50.66-24.99,109.81,4.02,122.78,58.46,1.58,6.63,2.29,13.36,2.34,19.72Z"/>
  <path class="cls-1" d="M255.76,500.32c-12.11,0-24.23,0-36.34,0-3.77,0-5.47-1.67-5.47-5.4,0-23.33,0-46.66,0-70,0-3.61,1.76-5.41,5.33-5.41,24.29,0,48.57,0,72.86,0,3.59,0,5.41,1.79,5.41,5.36,0,23.39,0,46.78,0,70.16,0,3.51-1.79,5.28-5.27,5.28-12.17,0-24.34,0-36.51,0ZM223.47,428.98v61.8h64.51v-61.8h-64.51Z"/>
  <path class="cls-1" d="M435.26,482.1c0,.88,0,1.54,0,2.2,0,13.63,0,27.25,0,40.88,0,4.19-1.62,5.79-5.79,5.8-3.7,0-7.4.02-11.1,0-3.56-.02-5.35-1.83-5.35-5.42,0-13.74,0-27.48,0-41.21,0-.66,0-1.33,0-2.24h-2.25c-17.44,0-34.88,0-52.32,0-4.01,0-5.72-1.7-5.72-5.72,0-3.64,0-7.29,0-10.93,0-4,1.72-5.71,5.76-5.71,17.33,0,34.65,0,51.98,0h2.56v-2.12c0-13.68,0-27.36,0-41.05,0-3.99,1.74-5.72,5.75-5.73,3.64,0,7.29,0,10.93,0,3.81.01,5.56,1.74,5.56,5.55.01,13.68,0,27.36,0,41.05,0,.67,0,1.33,0,2.19.77.04,1.42.09,2.07.09,17.44,0,34.88,0,52.32,0,4.28,0,5.93,1.62,5.92,5.86,0,3.64,0,7.29,0,10.93,0,3.83-1.72,5.57-5.52,5.57-17.44,0-34.88,0-52.32,0h-2.47ZM486.05,469.14c-.93,0-1.7,0-2.48,0-17.27,0-34.55,0-51.82,0-4.28,0-5.9-1.61-5.9-5.89,0-13.63,0-27.26,0-40.89,0-.45.05-.91-.04-1.34-.06-.27-.29-.62-.53-.71-1.75-.69-2.87.08-2.87,1.92,0,13.74,0,27.48,0,41.22,0,4.07-1.65,5.69-5.73,5.69-17.44,0-34.88,0-52.33,0-.7,0-1.4.08-2.09.12v3.43c.78,0,1.45,0,2.11,0,17.44,0,34.88,0,52.33,0,4.02,0,5.71,1.7,5.71,5.73,0,13.68,0,27.37,0,41.05,0,.65,0,1.3,0,1.96h3.44c0-.87,0-1.59,0-2.31,0-13.52,0-27.03,0-40.55,0-4.24,1.66-5.88,5.93-5.88,17.39,0,34.77,0,52.16,0h2.1v-3.55Z"/>
</svg>