<?xml version="1.0" encoding="UTF-8"?>
<svg id="Camada_1" data-name="Camada 1" xmlns="http://www.w3.org/2000/svg" viewBox="0 0 700 700">
  <defs>
    <style>
      .cls-1 {
        fill: #fff;
      }
    </style>
  </defs>
  <path class="cls-1" d="M341.75,343.91c-66.12,0-119.92-53.8-119.92-119.92s53.8-119.92,119.92-119.92,119.92,53.8,119.92,119.92-53.8,119.92-119.92,119.92ZM341.75,134.07c-49.58,0-89.92,40.34-89.92,89.92s40.34,89.92,89.92,89.92,89.92-40.34,89.92-89.92-40.34-89.92-89.92-89.92Z"/>
  <path class="cls-1" d="M119.48,595.93c-4.22,0-8.24-1.78-11.09-4.9-2.85-3.12-4.24-7.3-3.85-11.51,5.1-54.07,20.94-103.64,47.1-147.33,14.7-24.56,33.88-49.59,51.29-66.97,26.41-26.34,49.71-36.53,69.26-30.28,9.07,2.9,14.07,8.42,18.09,12.86,3.6,3.97,7,7.72,14.76,11.97,18.9,10.33,38.77,9.22,45.3,8.85,20.27-1.14,30.77-8.63,41.9-16.56,10.23-7.3,21.83-15.57,39.34-17.18,27.76-2.56,57.58,12.46,86.21,43.46,22.99,24.88,43.52,58.86,54.92,90.89,14.45,40.58,21.42,98.06,22.67,109.2.21,1.6.16,3.26-.18,4.92-1.43,6.97-7.56,11.98-14.68,11.99l-461.03.59h-.02ZM260.5,363.15c-6.72,0-19.06,6.03-36.38,23.31-15.77,15.73-33.24,38.58-46.74,61.14-21.18,35.39-34.96,75.12-41.04,118.31l427.12-.55c-3.03-21.42-9.27-58.72-19.01-86.06-20.29-56.99-71.68-118.08-110.12-114.54-9.45.87-15.84,5.43-24.69,11.74-12.79,9.11-28.7,20.46-57.63,22.08-8.64.48-34.95,1.96-61.37-12.48-12.21-6.67-18.22-13.31-22.61-18.15-3.13-3.46-3.79-4.04-4.99-4.42-.73-.23-1.59-.36-2.56-.36Z"/>
</svg>